<svg width="54" height="50" viewBox="0 0 54 50" fill="none" xmlns="http://www.w3.org/2000/svg">
<path fill-rule="evenodd" clip-rule="evenodd" d="M29.2332 0.0199133C28.7609 0.12194 28.4607 0.587426 28.5626 1.05969L28.5627 1.05995L28.5628 1.06043L28.5641 1.06672L28.5702 1.09624C28.5757 1.12325 28.5839 1.16465 28.5942 1.21898C28.6148 1.3277 28.6435 1.4878 28.6747 1.68763C28.7374 2.08837 28.8095 2.64337 28.848 3.26091C28.928 4.54603 28.8474 5.9118 28.4 6.77959C28.289 6.9949 28.1355 7.21725 27.9449 7.44356L27.6576 6.13894L27.2256 4.17781L25.3113 4.7843L11.8504 9.0488L1 27.8422L0 29.5743L1.73205 30.5743L17.1124 39.4541L18.8445 40.4541L19.8445 38.7221L22.951 33.3414C22.4139 32.8916 21.9264 32.3987 21.4907 31.8708L18.1124 37.7221L2.73205 28.8422L13.1944 10.721L25.7432 6.74542L26.2284 8.94797C25.919 9.1659 25.6012 9.372 25.2884 9.5631C25.1526 9.64603 25.0185 9.72574 24.8871 9.80197C24.7045 9.61714 24.4943 9.45342 24.2584 9.31721C22.8392 8.49784 21.0245 8.98409 20.2051 10.4033C19.3857 11.8225 19.872 13.6372 21.2912 14.4566C22.7104 15.276 24.5251 14.7897 25.3445 13.3705C25.7104 12.7368 25.8159 12.0243 25.6943 11.3567C25.8591 11.2618 26.0286 11.1616 26.2007 11.0565C26.3428 10.9697 26.4873 10.8791 26.633 10.7851L27.2642 13.6511C27.908 13.4749 28.5671 13.3551 29.2335 13.2937L28.392 9.47316C29.0116 8.92626 29.5904 8.2895 29.9554 7.58154C30.6373 6.25911 30.6768 4.47219 30.5946 3.15216C30.552 2.46714 30.4724 1.85646 30.4037 1.41717C30.3692 1.19698 30.3373 1.01847 30.3137 0.893585C30.3018 0.831111 30.2921 0.781961 30.2851 0.747624L30.2768 0.707383L30.2744 0.695921L30.2736 0.692415L30.2734 0.691225L30.2733 0.690772C30.2732 0.690584 30.2732 0.690413 29.4179 0.875182L30.2732 0.690413C30.1712 0.218061 29.7055 -0.0821317 29.2332 0.0199133ZM23.4343 10.5762C23.2903 10.6465 23.1701 10.7032 23.0798 10.745C23.0178 10.7736 22.9701 10.7953 22.9385 10.8094L22.9035 10.825L22.8956 10.8285L22.8943 10.829L22.8941 10.8291L22.8941 10.8291L22.894 10.8292C22.4511 11.022 22.2482 11.5374 22.4409 11.9804C22.6337 12.4236 23.1492 12.6266 23.5923 12.4338L23.2495 11.6457C23.5923 12.4338 23.5925 12.4337 23.5926 12.4337L23.5931 12.4335L23.5942 12.433L23.5979 12.4314L23.6101 12.426L23.6541 12.4064C23.6919 12.3895 23.7461 12.3649 23.8149 12.3331C23.919 12.2849 24.0565 12.22 24.2205 12.1398C24.1917 12.3046 24.134 12.4672 24.0455 12.6205C23.6403 13.3223 22.743 13.5627 22.0412 13.1576C21.3394 12.7524 21.099 11.8551 21.5041 11.1533C21.8952 10.476 22.7447 10.2284 23.4343 10.5762ZM50.8435 10.3323C50.7416 9.86005 51.0418 9.39456 51.514 9.29254C51.9864 9.19049 52.452 9.49068 52.5541 9.96304L51.6988 10.1478C52.5541 9.96304 52.5541 9.96321 52.5541 9.96339L52.5542 9.96385L52.5545 9.96504L52.5552 9.96854L52.5577 9.98001L52.566 10.0202C52.573 10.0546 52.5827 10.1037 52.5945 10.1662C52.6182 10.2911 52.6501 10.4696 52.6846 10.6898C52.7533 11.1291 52.8328 11.7398 52.8755 12.4248C52.9577 13.7448 52.9181 15.5317 52.2363 16.8542C51.9076 17.4918 51.4054 18.0716 50.8562 18.5801L53.2306 29.3604L42.3802 48.1538L41.3802 49.8859L39.6482 48.8859L24.2678 40.006L22.5357 39.006L23.5357 37.274L24.8647 34.9722C25.4709 35.2893 26.0933 35.5479 26.7252 35.7497L25.2678 38.274L40.6482 47.1538L51.1105 29.0326L49.106 19.932C48.8953 20.0717 48.6859 20.2043 48.4816 20.3291C48.3757 20.3938 48.2709 20.4566 48.1675 20.5174C48.3757 21.2597 48.2961 22.0819 47.8802 22.8023C47.0609 24.2215 45.2461 24.7077 43.8269 23.8884C42.4077 23.069 41.9215 21.2543 42.7408 19.8351C43.5602 18.4158 45.375 17.9296 46.7942 18.749C46.9464 18.8369 47.0879 18.9362 47.2183 19.0453C47.3335 18.978 47.4508 18.9081 47.5693 18.8357C47.9465 18.6053 48.3309 18.353 48.6991 18.0845L48.279 16.1772L40.3244 18.6972C39.9706 18.0957 39.5611 17.5231 39.0981 16.9878L47.847 14.216L49.7614 13.6096L50.1933 15.5707L50.3979 16.4993C50.5106 16.3477 50.6055 16.1983 50.6809 16.0522C51.1283 15.1844 51.2089 13.8186 51.1288 12.5335C51.0904 11.916 51.0183 11.361 50.9556 10.9602C50.9243 10.7604 50.8956 10.6003 50.8751 10.4916C50.8648 10.4373 50.8565 10.3959 50.851 10.3689L50.845 10.3393L50.8436 10.333L50.8435 10.3326L50.8435 10.3323ZM45.3607 20.0176C45.4337 19.9838 45.5265 19.9402 45.6356 19.8875C45.0248 19.7486 44.3695 20.0142 44.0399 20.5851C43.6347 21.2868 43.8752 22.1842 44.5769 22.5893C45.2787 22.9945 46.176 22.7541 46.5812 22.0523C46.7226 21.8074 46.7854 21.5386 46.7773 21.2753C46.7397 21.2943 46.7029 21.3128 46.6671 21.3306C46.4291 21.4493 46.2333 21.5421 46.0958 21.6057C46.027 21.6375 45.9728 21.6621 45.935 21.679L45.891 21.6986L45.8787 21.704L45.8751 21.7056L45.8739 21.7061L45.8735 21.7063C45.8733 21.7064 45.8732 21.7064 45.5304 20.9183L45.8732 21.7064C45.43 21.8992 44.9146 21.6962 44.7218 21.253C44.5291 20.81 44.732 20.2946 45.1749 20.1018L45.175 20.1018L45.175 20.1017L45.1752 20.1017L45.1765 20.1011L45.1844 20.0976L45.2194 20.082C45.251 20.0679 45.2987 20.0463 45.3607 20.0176ZM30.2674 32.0217C34.3522 32.0217 37.6636 28.7103 37.6636 24.6254C37.6636 20.5406 34.3522 17.2292 30.2674 17.2292C26.1826 17.2292 22.8712 20.5406 22.8712 24.6254C22.8712 28.7103 26.1826 32.0217 30.2674 32.0217ZM30.2674 34.0217C35.4568 34.0217 39.6636 29.8148 39.6636 24.6254C39.6636 19.436 35.4568 15.2292 30.2674 15.2292C25.078 15.2292 20.8712 19.436 20.8712 24.6254C20.8712 29.8148 25.078 34.0217 30.2674 34.0217ZM34 24.2611H26.5348V22.7611H34V24.2611ZM26.5348 27.2283H34V25.7283H26.5348V27.2283Z" fill="#ADADAD"/>
</svg>
