<svg width="50" height="50" viewBox="0 0 50 50" fill="none" xmlns="http://www.w3.org/2000/svg">
      <circle cx="25" cy="25" r="24" stroke="#ADADAD" stroke-width="2"></circle>
      <path fill-rule="evenodd" clip-rule="evenodd" d="M7.14114 29.0908C8.82859 35.6287 14.3713 41.1714 20.9091 42.8588V44.964C13.2568 43.2121 6.78787 36.7431 5.03601 29.0908H7.14114ZM20.9091 7.14118C14.3713 8.82864 8.82861 14.3713 7.14115 20.9092H5.03602C6.78789 13.2569 13.2568 6.78792 20.9091 5.03605V7.14118ZM42.8588 20.9092C41.1713 14.3713 35.6287 8.82862 29.0908 7.14117V5.03604C36.7431 6.7879 43.2121 13.2569 44.9639 20.9092H42.8588ZM29.0908 42.8588C35.6287 41.1714 41.1714 35.6287 42.8588 29.0908H44.9639C43.2121 36.7431 36.7431 43.2121 29.0908 44.964V42.8588Z" fill="#ADADAD"></path>
      <path fill-rule="evenodd" clip-rule="evenodd" d="M23.0741 11.5H21.1481V15.5371H17V17.463H21.1481V31.537H17V33.463H21.1481V37.5H23.0741V33.463H25.9629V37.5H27.8888V33.463H28V32.5C28 33.463 28.0004 33.463 28.0009 33.463L28.0018 33.463L28.0042 33.4629L28.0102 33.4629L28.0278 33.4627C28.0419 33.4625 28.0607 33.4622 28.0839 33.4615C28.1304 33.4602 28.1947 33.4576 28.2743 33.4527C28.4332 33.4428 28.6549 33.4235 28.9189 33.3854C29.4419 33.3098 30.1558 33.157 30.8829 32.8419C31.6102 32.5267 32.3862 32.0335 32.982 31.259C33.5879 30.4713 33.9629 29.4495 33.9629 28.1667C33.9629 26.0884 33.0046 24.7147 31.7852 23.8995C31.5595 23.7486 31.3265 23.6176 31.0907 23.5045C31.8179 22.6893 32.2963 21.4882 32.2963 19.8334C32.2963 18.8563 32.0386 18.0572 31.6104 17.4234C31.1876 16.7976 30.6333 16.384 30.1109 16.1123C29.5909 15.8419 29.0817 15.701 28.7097 15.6266C28.5215 15.589 28.3626 15.5672 28.2471 15.5547C28.1893 15.5484 28.1418 15.5444 28.1066 15.5418C28.0889 15.5406 28.0743 15.5397 28.0629 15.539L28.0482 15.5383L28.0427 15.538L28.0404 15.5379L28.0394 15.5379C28.0389 15.5378 28.0385 15.5378 28 16.5L28.0385 15.5378L28.0192 15.5371H28H27.8888V11.5H25.9629V15.5371H23.0741V11.5ZM23.0741 17.463V22.8704H28.3333C28.6109 22.8704 29.1138 22.7492 29.5414 22.3387C29.9447 21.9516 30.3703 21.2201 30.3703 19.8334C30.3703 19.2104 30.2113 18.7928 30.0146 18.5016C29.8124 18.2024 29.5333 17.9827 29.2224 17.821C28.9091 17.6581 28.5849 17.5657 28.332 17.5151C28.2076 17.4902 28.1061 17.4766 28.0393 17.4693C28.0082 17.466 27.9851 17.464 27.9711 17.463H23.0741ZM23.0741 24.7963V31.537H27.9976L27.9986 31.537L27.9992 31.537L28.0009 31.537L28.0283 31.5364C28.0551 31.5356 28.0982 31.5339 28.1553 31.5304C28.2698 31.5233 28.4388 31.5088 28.6436 31.4792C29.0581 31.4193 29.5942 31.3013 30.1171 31.0748C30.6398 30.8483 31.1137 30.529 31.4555 30.0847C31.7871 29.6537 32.037 29.0505 32.037 28.1667C32.037 26.7783 31.4398 25.9853 30.7148 25.5005C29.9381 24.9812 28.9707 24.7963 28.3333 24.7963H23.0741Z" fill="#ADADAD"></path>
      </svg>