<svg width="50" height="50" viewBox="0 0 50 50" fill="none" xmlns="http://www.w3.org/2000/svg">
<path fill-rule="evenodd" clip-rule="evenodd" d="M23.928 12.7942C23.9756 12.3694 24 11.9375 24 11.5C24 11.2606 23.9927 11.0229 23.9783 10.7871C26.2269 9.06478 29.0557 7.97 32.12 7.97C39.0218 7.97 44.7291 13.5238 45.3026 19.2922H46.74C47.7033 19.2922 48.4843 20.0731 48.4843 21.0365V28.3376C48.4843 29.301 47.7033 30.0819 46.74 30.0819H43.5329C43.3192 30.0819 43.1144 30.0434 42.9251 29.9731C41.2548 34.937 37.1324 38.565 32.12 38.565C28.8817 38.565 26.0148 37.0507 23.9406 34.64H26.9619C28.4658 35.8069 30.2469 36.475 32.12 36.475C37.2182 36.475 41.635 31.5258 41.635 25.04C41.635 18.5542 37.2182 13.605 32.12 13.605C27.0219 13.605 22.605 18.5542 22.605 25.04C22.605 27.165 23.0791 29.125 23.896 30.8H21.6208C21.5157 30.5399 21.4175 30.2755 21.3265 30.0072C21.1662 30.0558 20.9962 30.0819 20.82 30.0819H19.43V30.72C19.43 31.4104 19.9897 31.97 20.68 31.97H28.4982C28.5798 31.1613 29.2627 30.53 30.0929 30.53H34.1471C35.0323 30.53 35.75 31.2477 35.75 32.1329V33.3071C35.75 34.1923 35.0323 34.91 34.1471 34.91H30.0929C29.2627 34.91 28.5798 34.2788 28.4982 33.47H20.68C19.1612 33.47 17.93 32.2388 17.93 30.72V30.0819H17.6129C16.6496 30.0819 15.8687 29.301 15.8687 28.3376V22.4987C16.4866 22.3097 17.0825 22.07 17.6513 21.7845V28.2993H20.7816V27.9234C20.6068 26.9903 20.515 26.0249 20.515 25.04C20.515 24.0551 20.6068 23.0898 20.7816 22.1566V21.0748H18.8719C19.6348 20.5661 20.3334 19.9687 20.9531 19.2972C21.1657 19.3132 21.3677 19.3674 21.5522 19.4528C23.3537 14.8275 27.3306 11.515 32.12 11.515C36.9258 11.515 40.9135 14.8501 42.7062 19.5002C42.9523 19.3675 43.2338 19.2922 43.5329 19.2922H43.7936C43.2134 14.3779 38.2322 9.47 32.12 9.47C28.9244 9.47 26.038 10.8116 23.928 12.7942ZM43.5713 28.2993V27.2357C43.6726 26.5186 43.725 25.7849 43.725 25.04C43.725 24.2951 43.6726 23.5614 43.5713 22.8444V21.0748H46.7016V28.2993H43.5713ZM29.99 32.1329C29.99 32.0761 30.0361 32.03 30.0929 32.03H34.1471C34.2039 32.03 34.25 32.0761 34.25 32.1329V33.3071C34.25 33.3639 34.2039 33.41 34.1471 33.41H30.0929C30.0361 33.41 29.99 33.3639 29.99 33.3071V32.1329ZM14 50V49L14.0001 50H14.0004H14.0008H14.0014H14.0022H14.0032H14.0044H14.0057H14.0072H14.0089H14.0108H14.0128H14.0151H14.0175H14.02H14.0228H14.0257H14.0288H14.0321H14.0355H14.0391H14.0429H14.0469H14.051H14.0553H14.0598H14.0645H14.0693H14.0743H14.0795H14.0848H14.0904H14.096H14.1019H14.1079H14.1141H14.1205H14.127H14.1337H14.1406H14.1476H14.1549H14.1622H14.1698H14.1775H14.1854H14.1934H14.2016H14.21H14.2186H14.2273H14.2362H14.2452H14.2544H14.2638H14.2733H14.283H14.2929H14.3029H14.3131H14.3235H14.334H14.3447H14.3555H14.3665H14.3777H14.389H14.4005H14.4122H14.424H14.436H14.4481H14.4604H14.4729H14.4855H14.4983H14.5112H14.5243H14.5375H14.5509H14.5645H14.5782H14.5921H14.6062H14.6204H14.6347H14.6492H14.6639H14.6787H14.6937H14.7088H14.7241H14.7395H14.7551H14.7709H14.7868H14.8028H14.819H14.8354H14.8519H14.8686H14.8854H14.9024H14.9195H14.9368H14.9542H14.9718H14.9895H15.0074H15.0254H15.0436H15.0619H15.0804H15.099H15.1178H15.1367H15.1558H15.175H15.1943H15.2139H15.2335H15.2533H15.2733H15.2934H15.3136H15.334H15.3546H15.3752H15.3961H15.417H15.4382H15.4594H15.4808H15.5024H15.5241H15.5459H15.5679H15.59H15.6123H15.6347H15.6572H15.6799H15.7027H15.7257H15.7488H15.7721H15.7954H15.819H15.8426H15.8665H15.8904H15.9145H15.9387H15.9631H15.9876H16.0122H16.037H16.0619H16.087H16.1122H16.1375H16.1629H16.1885H16.2143H16.2401H16.2661H16.2923H16.3185H16.345H16.3715H16.3982H16.425H16.4519H16.479H16.5062H16.5335H16.561H16.5886H16.6163H16.6442H16.6722H16.7003H16.7286H16.757H16.7855H16.8141H16.8429H16.8718H16.9009H16.93H16.9593H16.9887H17.0183H17.0479H17.0777H17.1077H17.1377H17.1679H17.1982H17.2287H17.2592H17.2899H17.3207H17.3516H17.3827H17.4139H17.4452H17.4766H17.5082H17.5399H17.5717H17.6036H17.6356H17.6678H17.7001H17.7325H17.765H17.7977H17.8305H17.8634H17.8964H17.9295H17.9628H17.9961H18.0296H18.0633H18.097H18.1308H18.1648H18.1989H18.2331H18.2674H18.3019H18.3364H18.3711H18.4059H18.4408H18.4758H18.5109H18.5462H18.5815H18.617H18.6526H18.6883H18.7242H18.7601H18.7961H18.8323H18.8686H18.905H18.9415H18.9781H19.0148H19.0516H19.0886H19.1256H19.1628H19.2001H19.2375H19.275H19.3126H19.3503H19.3881H19.426H19.4641H19.5022H19.5405H19.5789H19.6173H19.6559H19.6946H19.7334H19.7723H19.8113H19.8504H19.8896H19.929H19.9684H20.0079H20.0476H20.0873H20.1271H20.1671H20.2071H20.2473H20.2876H20.3279H20.3684H20.4089H20.4496H20.4904H20.5312H20.5722H20.6133H20.6545H20.6957H20.7371H20.7786H20.8201H20.8618H20.9036H20.9454H20.9874H21.0295H21.0716H21.1139H21.1562H21.1987H21.2412H21.2839H21.3266H21.3695H21.4124H21.4554H21.4986H21.5418H21.5851H21.6285H21.672H21.7156H21.7593H21.8031H21.8469H21.8909H21.9349H21.9791H22.0233H22.0677H22.1121H22.1566H22.2012H22.2459H22.2907H22.3356H22.3806H22.4256H22.4708H22.516H22.5613H22.6067H22.6522H22.6978H22.7435H22.7893H22.8351H22.881H22.9271H22.9732H23.0194H23.0656H23.112H23.1585H23.205H23.2516H23.2983H23.3451H23.392H23.4389H23.486H23.5331H23.5803H23.6276H23.675H23.7224H23.7699H23.8176H23.8653H23.913H23.9609H24.0088H24.0568H24.1049H24.1531H24.2014H24.2497H24.2981H24.3466H24.3952H24.4438H24.4925H24.5413H24.5902H24.6392H24.6882H24.7373H24.7865H24.8358H24.8851H24.9345H24.984H25.0336H25.0832H25.1329H25.1827H25.2325H25.2825H25.3325H25.3825H25.4327H25.4829H25.5332H25.5836H25.634H25.6845H25.7351H25.7857H25.8365H25.8872H25.9381H25.989H26.04H26.0911H26.1422H26.1934H26.2447H26.296H26.3474H26.3989H26.4505H26.5021H26.5537H26.6055H26.6573H26.7092H26.7611H26.8131H26.8652H26.9173H26.9695H27.0218H27.0741H27.1265H27.1789H27.2314H27.284H27.3367H27.3894H27.4421H27.495H27.5478H27.6008H27.6538H27.7069H27.76H27.8132H27.8665H27.9198H27.9731H28.0266H28.0801H28.1336H28.1872H28.2409H28.2946H28.3484H28.4022H28.4561H28.5101H28.5641H28.6181H28.6722H28.7264H28.7806H28.8349H28.8893H28.9437H28.9981H29.0526H29.1072H29.1618H29.2164H29.2711H29.3259H29.3807H29.4356H29.4905H29.5455H29.6005H29.6556H29.7107H29.7659H29.8211H29.8764H29.9317H29.9871H30.0425H30.098H30.1535H30.2091H30.2647H30.3204H30.3761H30.4319H30.4877H30.5435H30.5995H30.6554H30.7114H30.7674H30.8235H30.8797H30.9358H30.9921H31.0483H31.1046H31.161H31.2174H31.2738H31.3303H31.3868H31.4434H31.5H31.5566H31.6132H31.6697H31.7262H31.7826H31.839H31.8954H31.9517H32.0079H32.0642H32.1203H32.1765H32.2326H32.2886H32.3446H32.4005H32.4564H32.5123H32.5681H32.6239H32.6796H32.7353H32.7909H32.8465H32.902H32.9575H33.0129H33.0683H33.1236H33.1789H33.2341H33.2893H33.3444H33.3995H33.4545H33.5095H33.5644H33.6193H33.6741H33.7289H33.7836H33.8382H33.8928H33.9474H34.0019H34.0563H34.1107H34.1651H34.2194H34.2736H34.3278H34.3819H34.4359H34.4899H34.5439H34.5978H34.6516H34.7054H34.7591H34.8128H34.8664H34.9199H34.9734H35.0269H35.0802H35.1335H35.1868H35.24H35.2931H35.3462H35.3992H35.4522H35.505H35.5579H35.6106H35.6633H35.716H35.7686H35.8211H35.8735H35.9259H35.9782H36.0305H36.0827H36.1348H36.1869H36.2389H36.2908H36.3427H36.3945H36.4463H36.4979H36.5495H36.6011H36.6526H36.704H36.7553H36.8066H36.8578H36.9089H36.96H37.011H37.0619H37.1128H37.1635H37.2143H37.2649H37.3155H37.366H37.4164H37.4668H37.5171H37.5673H37.6175H37.6675H37.7175H37.7675H37.8173H37.8671H37.9168H37.9664H38.016H38.0655H38.1149H38.1642H38.2135H38.2627H38.3118H38.3608H38.4098H38.4587H38.5075H38.5562H38.6048H38.6534H38.7019H38.7503H38.7986H38.8469H38.8951H38.9432H38.9912H39.0391H39.087H39.1347H39.1824H39.2301H39.2776H39.325H39.3724H39.4197H39.4669H39.514H39.5611H39.608H39.6549H39.7017H39.7484H39.795H39.8415H39.888H39.9344H39.9806H40.0268H40.0729H40.119H40.1649H40.2107H40.2565H40.3022H40.3478H40.3933H40.4387H40.484H40.5292H40.5744H40.6194H40.6644H40.7093H40.7541H40.7988H40.8434H40.8879H40.9323H40.9767H41.0209H41.065H41.1091H41.1531H41.1969H41.2407H41.2844H41.328H41.3715H41.4149H41.4582H41.5014H41.5446H41.5876H41.6305H41.6734H41.7161H41.7588H41.8013H41.8438H41.8861H41.9284H41.9705H42.0126H42.0546H42.0964H42.1382H42.1799H42.2214H42.2629H42.3043H42.3455H42.3867H42.4278H42.4688H42.5096H42.5504H42.5911H42.6316H42.6721H42.7124H42.7527H42.7929H42.8329H42.8729H42.9127H42.9524H42.9921H43.0316H43.071H43.1104H43.1496H43.1887H43.2277H43.2666H43.3054H43.3441H43.3827H43.4211H43.4595H43.4978H43.5359H43.574H43.6119H43.6497H43.6874H43.725H43.7625H43.7999H43.8372H43.8744H43.9114H43.9484H43.9852H44.0219H44.0585H44.095H44.1314H44.1677H44.2039H44.2399H44.2758H44.3117H44.3474H44.383H44.4184H44.4538H44.4891H44.5242H44.5592H44.5941H44.6289H44.6636H44.6981H44.7326H44.7669H44.8011H44.8352H44.8692H44.903H44.9367H44.9704H45.0038H45.0372H45.0705H45.1036H45.1366H45.1695H45.2023H45.235H45.2675H45.2999H45.3322H45.3644H45.3964H45.4283H45.4601H45.4918H45.5234H45.5548H45.5861H45.6173H45.6484H45.6793H45.7101H45.7408H45.7713H45.8018H45.8321H45.8623H45.8923H45.9222H45.952H45.9817H46.0113H46.0407H46.07H46.0991H46.1282H46.1571H46.1859H46.2145H46.243H46.2714H46.2997H46.3278H46.3558H46.3837H46.4114H46.439H46.4665H46.4938H46.521H46.5481H46.575H46.6018H46.6285H46.655H46.6814H46.7077H46.7339H46.7599H46.7857H46.8115H46.8371H46.8625H46.8878H46.913H46.9381H46.963H46.9878H47.0124H47.0369H47.0613H47.0855H47.1096H47.1335H47.1574H47.181H47.2046H47.2279H47.2512H47.2743H47.2973H47.3201H47.3428H47.3653H47.3877H47.41H47.4321H47.4541H47.4759H47.4976H47.5192H47.5406H47.5618H47.583H47.6039H47.6248H47.6454H47.666H47.6864H47.7066H47.7267H47.7467H47.7665H47.7861H47.8057H47.825H47.8442H47.8633H47.8822H47.901H47.9196H47.9381H47.9564H47.9746H47.9926H48.0105H48.0282H48.0458H48.0632H48.0805H48.0976H48.1146H48.1314H48.1481H48.1646H48.181H48.1972H48.2132H48.2291H48.2449H48.2605H48.2759H48.2912H48.3063H48.3213H48.3361H48.3508H48.3653H48.3797H48.3938H48.4079H48.4218H48.4355H48.4491H48.4625H48.4757H48.4888H48.5017H48.5145H48.5271H48.5396H48.5519H48.564H48.576H48.5878H48.5995H48.611H48.6223H48.6335H48.6445H48.6553H48.666H48.6765H48.6869H48.6971H48.7071H48.717H48.7267H48.7362H48.7456H48.7548H48.7638H48.7727H48.7814H48.79H48.7984H48.8066H48.8146H48.8225H48.8302H48.8378H48.8451H48.8524H48.8594H48.8663H48.873H48.8795H48.8859H48.8921H48.8981H48.904H48.9096H48.9152H48.9205H48.9257H48.9307H48.9355H48.9402H48.9447H48.949H48.9531H48.9571H48.9609H48.9645H48.9679H48.9712H48.9743H48.9772H48.98H48.9825H48.9849H48.9872H48.9892H48.9911H48.9928H48.9943H48.9956H48.9968H48.9978H48.9986H48.9992H48.9996H48.9999L49 49V50H50V49C50 46.2149 48.9424 43.6187 45.9632 41.7845C43.0796 40.0091 38.4781 39 31.5 39C24.5219 39 19.9204 40.0091 17.0368 41.7845C14.0576 43.6187 13 46.2149 13 49V50H14ZM44.9147 43.4876C46.8661 44.6891 47.7216 46.2331 47.9408 48H47.9381H47.9196H47.901H47.8822H47.8633H47.8442H47.825H47.8057H47.7861H47.7665H47.7467H47.7267H47.7066H47.6864H47.666H47.6454H47.6248H47.6039H47.583H47.5618H47.5406H47.5192H47.4976H47.4759H47.4541H47.4321H47.41H47.3877H47.3653H47.3428H47.3201H47.2973H47.2743H47.2512H47.2279H47.2046H47.181H47.1574H47.1335H47.1096H47.0855H47.0613H47.0369H47.0124H46.9878H46.963H46.9381H46.913H46.8878H46.8625H46.8371H46.8115H46.7857H46.7599H46.7339H46.7077H46.6814H46.655H46.6285H46.6018H46.575H46.5481H46.521H46.4938H46.4665H46.439H46.4114H46.3837H46.3558H46.3278H46.2997H46.2714H46.243H46.2145H46.1859H46.1571H46.1282H46.0991H46.07H46.0407H46.0113H45.9817H45.952H45.9222H45.8923H45.8623H45.8321H45.8018H45.7713H45.7408H45.7101H45.6793H45.6484H45.6173H45.5861H45.5548H45.5234H45.4918H45.4601H45.4283H45.3964H45.3644H45.3322H45.2999H45.2675H45.235H45.2023H45.1695H45.1366H45.1036H45.0705H45.0372H45.0038H44.9704H44.9367H44.903H44.8692H44.8352H44.8011H44.7669H44.7326H44.6981H44.6636H44.6289H44.5941H44.5592H44.5242H44.4891H44.4538H44.4184H44.383H44.3474H44.3117H44.2758H44.2399H44.2039H44.1677H44.1314H44.095H44.0585H44.0219H43.9852H43.9484H43.9114H43.8744H43.8372H43.7999H43.7625H43.725H43.6874H43.6497H43.6119H43.574H43.5359H43.4978H43.4595H43.4211H43.3827H43.3441H43.3054H43.2666H43.2277H43.1887H43.1496H43.1104H43.071H43.0316H42.9921H42.9524H42.9127H42.8729H42.8329H42.7929H42.7527H42.7124H42.6721H42.6316H42.5911H42.5504H42.5096H42.4688H42.4278H42.3867H42.3455H42.3043H42.2629H42.2214H42.1799H42.1382H42.0964H42.0546H42.0126H41.9705H41.9284H41.8861H41.8438H41.8013H41.7588H41.7161H41.6734H41.6305H41.5876H41.5446H41.5014H41.4582H41.4149H41.3715H41.328H41.2844H41.2407H41.1969H41.1531H41.1091H41.065H41.0209H40.9767H40.9323H40.8879H40.8434H40.7988H40.7541H40.7093H40.6644H40.6194H40.5744H40.5292H40.484H40.4387H40.3933H40.3478H40.3022H40.2565H40.2107H40.1649H40.119H40.0729H40.0268H39.9806H39.9344H39.888H39.8415H39.795H39.7484H39.7017H39.6549H39.608H39.5611H39.514H39.4669H39.4197H39.3724H39.325H39.2776H39.2301H39.1824H39.1347H39.087H39.0391H38.9912H38.9432H38.8951H38.8469H38.7986H38.7503H38.7019H38.6534H38.6048H38.5562H38.5075H38.4587H38.4098H38.3608H38.3118H38.2627H38.2135H38.1642H38.1149H38.0655H38.016H37.9664H37.9168H37.8671H37.8173H37.7675H37.7175H37.6675H37.6175H37.5673H37.5171H37.4668H37.4164H37.366H37.3155H37.2649H37.2143H37.1635H37.1128H37.0619H37.011H36.96H36.9089H36.8578H36.8066H36.7553H36.704H36.6526H36.6011H36.5495H36.4979H36.4463H36.3945H36.3427H36.2908H36.2389H36.1869H36.1348H36.0827H36.0305H35.9782H35.9259H35.8735H35.8211H35.7686H35.716H35.6633H35.6106H35.5579H35.505H35.4522H35.3992H35.3462H35.2931H35.24H35.1868H35.1335H35.0802H35.0269H34.9734H34.9199H34.8664H34.8128H34.7591H34.7054H34.6516H34.5978H34.5439H34.4899H34.4359H34.3819H34.3278H34.2736H34.2194H34.1651H34.1107H34.0563H34.0019H33.9474H33.8928H33.8382H33.7836H33.7289H33.6741H33.6193H33.5644H33.5095H33.4545H33.3995H33.3444H33.2893H33.2341H33.1789H33.1236H33.0683H33.0129H32.9575H32.902H32.8465H32.7909H32.7353H32.6796H32.6239H32.5681H32.5123H32.4564H32.4005H32.3446H32.2886H32.2326H32.1765H32.1203H32.0642H32.0079H31.9517H31.8954H31.839H31.7826H31.7262H31.6697H31.6132H31.5566H31.5H31.4434H31.3868H31.3303H31.2738H31.2174H31.161H31.1046H31.0483H30.9921H30.9358H30.8797H30.8235H30.7674H30.7114H30.6554H30.5995H30.5435H30.4877H30.4319H30.3761H30.3204H30.2647H30.2091H30.1535H30.098H30.0425H29.9871H29.9317H29.8764H29.8211H29.7659H29.7107H29.6556H29.6005H29.5455H29.4905H29.4356H29.3807H29.3259H29.2711H29.2164H29.1618H29.1072H29.0526H28.9981H28.9437H28.8893H28.8349H28.7806H28.7264H28.6722H28.6181H28.5641H28.5101H28.4561H28.4022H28.3484H28.2946H28.2409H28.1872H28.1336H28.0801H28.0266H27.9731H27.9198H27.8665H27.8132H27.76H27.7069H27.6538H27.6008H27.5478H27.495H27.4421H27.3894H27.3367H27.284H27.2314H27.1789H27.1265H27.0741H27.0218H26.9695H26.9173H26.8652H26.8131H26.7611H26.7092H26.6573H26.6055H26.5537H26.5021H26.4505H26.3989H26.3474H26.296H26.2447H26.1934H26.1422H26.0911H26.04H25.989H25.9381H25.8872H25.8365H25.7857H25.7351H25.6845H25.634H25.5836H25.5332H25.4829H25.4327H25.3825H25.3325H25.2825H25.2325H25.1827H25.1329H25.0832H25.0336H24.984H24.9345H24.8851H24.8358H24.7865H24.7373H24.6882H24.6392H24.5902H24.5413H24.4925H24.4438H24.3952H24.3466H24.2981H24.2497H24.2014H24.1531H24.1049H24.0568H24.0088H23.9609H23.913H23.8653H23.8176H23.7699H23.7224H23.675H23.6276H23.5803H23.5331H23.486H23.4389H23.392H23.3451H23.2983H23.2516H23.205H23.1585H23.112H23.0656H23.0194H22.9732H22.9271H22.881H22.8351H22.7893H22.7435H22.6978H22.6522H22.6067H22.5613H22.516H22.4708H22.4256H22.3806H22.3356H22.2907H22.2459H22.2012H22.1566H22.1121H22.0677H22.0233H21.9791H21.9349H21.8909H21.8469H21.8031H21.7593H21.7156H21.672H21.6285H21.5851H21.5418H21.4986H21.4554H21.4124H21.3695H21.3266H21.2839H21.2412H21.1987H21.1562H21.1139H21.0716H21.0295H20.9874H20.9454H20.9036H20.8618H20.8201H20.7786H20.7371H20.6957H20.6545H20.6133H20.5722H20.5312H20.4904H20.4496H20.4089H20.3684H20.3279H20.2876H20.2473H20.2071H20.1671H20.1271H20.0873H20.0476H20.0079H19.9684H19.929H19.8896H19.8504H19.8113H19.7723H19.7334H19.6946H19.6559H19.6173H19.5789H19.5405H19.5022H19.4641H19.426H19.3881H19.3503H19.3126H19.275H19.2375H19.2001H19.1628H19.1256H19.0886H19.0516H19.0148H18.9781H18.9415H18.905H18.8686H18.8323H18.7961H18.7601H18.7242H18.6883H18.6526H18.617H18.5815H18.5462H18.5109H18.4758H18.4408H18.4059H18.3711H18.3364H18.3019H18.2674H18.2331H18.1989H18.1648H18.1308H18.097H18.0633H18.0296H17.9961H17.9628H17.9295H17.8964H17.8634H17.8305H17.7977H17.765H17.7325H17.7001H17.6678H17.6356H17.6036H17.5717H17.5399H17.5082H17.4766H17.4452H17.4139H17.3827H17.3516H17.3207H17.2899H17.2592H17.2287H17.1982H17.1679H17.1377H17.1077H17.0777H17.0479H17.0183H16.9887H16.9593H16.93H16.9009H16.8718H16.8429H16.8141H16.7855H16.757H16.7286H16.7003H16.6722H16.6442H16.6163H16.5886H16.561H16.5335H16.5062H16.479H16.4519H16.425H16.3982H16.3715H16.345H16.3185H16.2923H16.2661H16.2401H16.2143H16.1885H16.1629H16.1375H16.1122H16.087H16.0619H16.037H16.0122H15.9876H15.9631H15.9387H15.9145H15.8904H15.8665H15.8426H15.819H15.7954H15.7721H15.7488H15.7257H15.7027H15.6799H15.6572H15.6347H15.6123H15.59H15.5679H15.5459H15.5241H15.5024H15.4808H15.4594H15.4382H15.417H15.3961H15.3752H15.3546H15.334H15.3136H15.2934H15.2733H15.2533H15.2335H15.2139H15.1943H15.175H15.1558H15.1367H15.1178H15.099H15.0804H15.0619H15.0592C15.2784 46.2331 16.1339 44.6891 18.0853 43.4876C20.4924 42.0056 24.6409 41 31.5 41C38.3591 41 42.5076 42.0056 44.9147 43.4876Z" fill="#ADADAD"/>
<path fill-rule="evenodd" clip-rule="evenodd" d="M12.5 2.75C7.66751 2.75 3.75 6.66751 3.75 11.5C3.75 16.3325 7.66751 20.25 12.5 20.25C17.3325 20.25 21.25 16.3325 21.25 11.5C21.25 6.66751 17.3325 2.75 12.5 2.75ZM2.25 11.5C2.25 5.83908 6.83908 1.25 12.5 1.25C18.1609 1.25 22.75 5.83908 22.75 11.5C22.75 17.1609 18.1609 21.75 12.5 21.75C6.83908 21.75 2.25 17.1609 2.25 11.5Z" fill="#ADADAD"/>
<path fill-rule="evenodd" clip-rule="evenodd" d="M11.9552 6.40707C12.1232 5.86431 12.8767 5.86431 13.0448 6.40707L14.0822 9.7561H17.4285C17.715 9.7561 17.9087 9.95427 17.9734 10.1632C18.0377 10.3711 17.9912 10.6373 17.7707 10.8053L15.0496 12.8792L16.0908 16.2408C16.1708 16.499 16.0678 16.746 15.8882 16.8829C15.7061 17.0217 15.4303 17.0555 15.2039 16.8829L12.5 14.8222L9.79621 16.8829C9.56971 17.0555 9.294 17.0217 9.1119 16.8829C8.93225 16.746 8.82923 16.499 8.90913 16.2408L9.95049 12.8792L7.22937 10.8053C7.00891 10.6373 6.96227 10.3711 7.02661 10.1632C7.09137 9.95427 7.28503 9.7561 7.57149 9.7561H10.9177L11.9552 6.40707ZM12.5 6.97151L11.5507 10.0366C11.4783 10.2701 11.2641 10.4436 11.0058 10.4436H7.88919L10.4246 12.376C10.6232 12.5273 10.6989 12.7868 10.6273 13.0181L9.66746 16.1167L12.1579 14.2186C12.3608 14.064 12.6394 14.064 12.8423 14.2186L15.3327 16.1167L14.373 13.0181C14.3013 12.7868 14.377 12.5273 14.5757 12.376L17.111 10.4436H13.9944C13.7361 10.4436 13.5219 10.2701 13.4495 10.0366L12.5 6.97151Z" fill="#ADADAD" stroke="#ADADAD" stroke-width="0.5"/>
</svg>
