<svg width="50" height="51" viewBox="0 0 50 51" fill="none" xmlns="http://www.w3.org/2000/svg">
<path fill-rule="evenodd" clip-rule="evenodd" d="M4.04297 24.5C4.04297 12.6274 13.4477 3.04297 25 3.04297C36.5523 3.04297 45.957 12.6274 45.957 24.5C45.957 25.5794 45.8792 26.6397 45.7292 27.6754C45.0761 27.3419 44.3629 27.0987 43.603 26.9647C42.9497 26.8494 42.3118 27.0167 41.8148 27.3788C41.4232 26.832 40.8257 26.432 40.111 26.306L40.0577 26.2966C38.6082 26.041 37.226 27.0088 36.9704 28.4583L33.7782 46.561C33.5226 48.0105 34.4904 49.3927 35.9399 49.6483L35.9931 49.6577C36.604 49.7654 37.2029 49.6558 37.7106 49.3845C38.026 50.0447 38.6448 50.5479 39.4202 50.6846C43.5282 51.409 47.4456 48.6661 48.17 44.5582L49.7295 35.7144C50.1756 33.1847 49.3068 30.7273 47.6141 29.0432C47.8956 27.5724 48.043 26.0533 48.043 24.5C48.043 11.5198 37.7482 0.957024 25 0.957024C12.2517 0.957024 1.95702 11.5198 1.95702 24.5C1.95702 26.0951 2.11242 27.6542 2.40892 29.1619C0.793228 30.8415 -0.0255044 33.2435 0.410213 35.7144L1.96972 44.5582C2.69412 48.6661 6.6115 51.409 10.7194 50.6846C11.4805 50.5504 12.0907 50.0632 12.4112 49.4211C12.9033 49.6655 13.4751 49.7604 14.0577 49.6577L14.111 49.6483C15.5604 49.3927 16.5283 48.0105 16.2727 46.561L13.0805 28.4583C12.8249 27.0088 11.4426 26.041 9.99314 26.2966L9.93985 26.306C9.24332 26.4288 8.658 26.8118 8.26623 27.3374C7.77822 27.0042 7.16462 26.8539 6.53668 26.9647C5.72615 27.1076 4.96877 27.3748 4.28068 27.7433C4.12418 26.6861 4.04297 25.603 4.04297 24.5ZM12.617 47.9422L9.25322 28.8668C9.22918 28.7304 9.19381 28.5989 9.14825 28.4731C9.30647 28.0404 9.68453 27.7016 10.1708 27.6158L10.2241 27.6064C10.9502 27.4784 11.6426 27.9632 11.7707 28.6893L14.9629 46.792C15.0909 47.5181 14.6061 48.2105 13.88 48.3385L13.8267 48.3479C13.364 48.4295 12.915 48.2622 12.617 47.9422ZM6.89892 29.0189C7.03979 28.9941 7.17413 29.0881 7.19897 29.229L10.5673 48.3303C10.5921 48.4712 10.4981 48.6055 10.3572 48.6304C7.38379 49.1547 4.54831 47.1693 4.02398 44.1959L2.46447 35.3521C1.94014 32.3787 3.92551 29.5432 6.89892 29.0189ZM40.8865 28.8668C40.9017 28.7805 40.9214 28.6961 40.9454 28.614C40.8235 28.1153 40.418 27.7107 39.88 27.6158L39.8267 27.6064C39.1006 27.4784 38.4082 27.9632 38.2802 28.6893L35.0879 46.792C34.9599 47.5181 35.4447 48.2105 36.1708 48.3385L36.2241 48.3479C36.7501 48.4407 37.2584 48.2118 37.5473 47.8026L40.8865 28.8668ZM43.2408 29.0189C43.0999 28.9941 42.9656 29.0881 42.9407 29.229L39.5724 48.3303C39.5476 48.4712 39.6416 48.6055 39.7825 48.6304C42.7559 49.1547 45.5914 47.1693 46.1157 44.1959L47.6752 35.3521C48.1996 32.3787 46.2142 29.5432 43.2408 29.0189Z" fill="#ADADAD"/>
<path d="M25.1379 32.7503L17.2502 24.8626C15.4278 23.0402 15.4278 20.0729 17.2502 18.2506L17.2502 18.2506C18.1288 17.372 19.3025 16.8879 20.5553 16.8879C21.8081 16.8879 22.9816 17.372 23.8604 18.2506C23.8604 18.2506 23.8604 18.2506 23.8604 18.2506L24.9591 19.3493L25.1359 19.5261L25.3127 19.3493L26.4115 18.2506C28.2339 16.4281 31.2012 16.4281 33.0236 18.2506L33.1972 18.0769L33.0236 18.2506C33.9021 19.1291 34.3862 20.3028 34.3862 21.5556V21.556C34.3879 22.8106 33.904 23.984 33.0256 24.8626L25.1379 32.7503ZM25.1379 32.7503L33.0254 24.8628L25.1379 32.7503ZM24.9615 34.1768L25.1382 34.3536L25.315 34.1768L33.8275 25.6643C34.9201 24.5717 35.5222 23.1104 35.5222 21.5577C35.5222 20.005 34.9204 18.5416 33.8275 17.4489L33.7543 17.3757H33.7526C31.4818 15.184 27.8524 15.2084 25.6118 17.4489L25.1379 17.9229L24.6639 17.4489C23.5713 16.3564 22.1122 15.7542 20.5573 15.7542C19.0026 15.7542 17.5415 16.3563 16.4489 17.4489C14.1837 19.7142 14.1837 23.3991 16.4489 25.6643L24.9615 34.1768Z" fill="#ADADAD" stroke="#ADADAD" stroke-width="0.5"/>
</svg>
