<svg width="54" height="51" viewBox="0 0 54 51" fill="none" xmlns="http://www.w3.org/2000/svg">
<path d="M8.96875 29L8.96875 44L27.0938 49M27.0938 49L45.5312 44V29M27.0938 49V19.5" stroke="#ADADAD" stroke-width="2"/>
<path fill-rule="evenodd" clip-rule="evenodd" d="M7.07176 20.2793L1.91876 27.15L0.902588 28.5049L2.57977 28.7403L20.3923 31.2403L21.0495 31.3325L21.3898 30.7627L27.25 20.9503L33.1102 30.7627L33.4505 31.3325L34.1077 31.2403L51.9202 28.7403L53.5974 28.5049L52.5813 27.15L46.0188 18.4L45.7188 18H45.2188H27.25H23.9882C23.4856 18.7322 22.9004 19.4034 22.2461 20H25.488L20.013 29.1675L4.53494 26.9951L8.70484 21.4352C8.12639 21.0971 7.58013 20.7099 7.07176 20.2793ZM34.487 29.1675L29.012 20H44.7188L49.9651 26.9951L34.487 29.1675Z" fill="#ADADAD"/>
<path fill-rule="evenodd" clip-rule="evenodd" d="M24.6385 11.2741C24.6385 9.5671 24.1339 7.02304 22.5975 4.88405C21.0336 2.70667 18.4332 1 14.3876 1V2.50179C17.9421 2.50179 20.0917 3.96952 21.3778 5.76014C22.6914 7.58915 23.1367 9.80668 23.1367 11.2741C23.1367 16.0915 19.2214 20 14.3876 20C9.55392 20 5.63854 16.0915 5.63854 11.2741C5.63854 10.0453 5.9819 8.65068 6.56361 7.44816C7.01166 6.52193 7.56977 5.77263 8.15934 5.29284L8.11537 7.02826L9.49303 7.06317L9.57651 3.76835L9.59397 3.07952L8.90513 3.06207L5.77215 2.98269L5.73725 4.36035L6.91197 4.39011C6.22311 5.03763 5.64945 5.88922 5.21168 6.79418C4.54339 8.1757 4.13675 9.79268 4.13675 11.2741C4.13675 16.9244 8.72796 21.5018 14.3876 21.5018C20.0473 21.5018 24.6385 16.9244 24.6385 11.2741Z" fill="#ADADAD"/>
<path d="M11.7262 12.352C11.7262 12.6613 11.6622 12.9307 11.5342 13.16C11.4115 13.384 11.2488 13.5707 11.0462 13.72C10.8435 13.864 10.6142 13.9707 10.3582 14.04C10.1075 14.1147 9.85151 14.152 9.59018 14.152C9.33418 14.152 9.08351 14.1227 8.83818 14.064C8.59818 14.0053 8.37684 13.9173 8.17418 13.8C7.97684 13.6773 7.80351 13.5227 7.65418 13.336C7.50484 13.144 7.39284 12.9147 7.31818 12.648L8.56618 12.32C8.61951 12.5067 8.72884 12.672 8.89418 12.816C9.05951 12.9547 9.27018 13.024 9.52618 13.024C9.62218 13.024 9.71818 13.0107 9.81418 12.984C9.91551 12.9573 10.0035 12.9173 10.0782 12.864C10.1582 12.8053 10.2222 12.7307 10.2702 12.64C10.3235 12.5493 10.3502 12.4373 10.3502 12.304C10.3502 12.16 10.3155 12.04 10.2462 11.944C10.1822 11.848 10.0942 11.7733 9.98218 11.72C9.87551 11.6613 9.75284 11.6213 9.61418 11.6C9.47551 11.5733 9.33684 11.56 9.19818 11.56H8.83818V10.576H9.23018C9.35818 10.576 9.48084 10.568 9.59818 10.552C9.71551 10.5307 9.81951 10.496 9.91018 10.448C10.0062 10.3947 10.0808 10.3253 10.1342 10.24C10.1928 10.1547 10.2222 10.0427 10.2222 9.90401C10.2222 9.70134 10.1502 9.54667 10.0062 9.44001C9.86218 9.33334 9.69684 9.28001 9.51018 9.28001C9.31818 9.28001 9.15018 9.33867 9.00618 9.45601C8.86751 9.56801 8.77684 9.72001 8.73418 9.91201L7.48618 9.62401C7.55551 9.38401 7.65951 9.17601 7.79818 9.00001C7.93684 8.81867 8.09951 8.66934 8.28618 8.55201C8.47818 8.42934 8.68618 8.33867 8.91018 8.28001C9.13418 8.21601 9.36351 8.18401 9.59818 8.18401C9.84884 8.18401 10.0915 8.21601 10.3262 8.28001C10.5662 8.34401 10.7795 8.44267 10.9662 8.57601C11.1528 8.70934 11.3022 8.87734 11.4142 9.08001C11.5315 9.27734 11.5902 9.51201 11.5902 9.78401C11.5902 10.0987 11.4995 10.3653 11.3182 10.584C11.1422 10.7973 10.9155 10.9413 10.6382 11.016V11.04C10.7982 11.0773 10.9448 11.1387 11.0782 11.224C11.2115 11.304 11.3262 11.4027 11.4222 11.52C11.5182 11.632 11.5928 11.76 11.6462 11.904C11.6995 12.0427 11.7262 12.192 11.7262 12.352Z" fill="#ADADAD"/>
<path d="M16.7221 12.096C16.7221 12.416 16.6634 12.704 16.5461 12.96C16.4287 13.216 16.2687 13.432 16.0661 13.608C15.8634 13.784 15.6261 13.9173 15.3541 14.008C15.0821 14.104 14.7941 14.152 14.4901 14.152C14.1807 14.152 13.8901 14.104 13.6181 14.008C13.3514 13.9173 13.1167 13.784 12.9141 13.608C12.7114 13.432 12.5514 13.2187 12.4341 12.968C12.3167 12.7173 12.2581 12.4373 12.2581 12.128C12.2581 11.792 12.3167 11.488 12.4341 11.216C12.5514 10.9387 12.7034 10.6587 12.8901 10.376L14.2581 8.33601H15.8821L14.4901 10.272L14.4661 10.312C14.5194 10.2907 14.5834 10.2747 14.6581 10.264C14.7327 10.2533 14.8021 10.248 14.8661 10.248C15.1114 10.248 15.3461 10.2933 15.5701 10.384C15.7994 10.4693 15.9967 10.5947 16.1621 10.76C16.3327 10.92 16.4687 11.1147 16.5701 11.344C16.6714 11.568 16.7221 11.8187 16.7221 12.096ZM15.3781 12.128C15.3781 11.872 15.2981 11.6613 15.1381 11.496C14.9781 11.3253 14.7647 11.24 14.4981 11.24C14.2314 11.24 14.0154 11.3227 13.8501 11.488C13.6847 11.6533 13.6021 11.8693 13.6021 12.136C13.6021 12.3813 13.6821 12.592 13.8421 12.768C14.0021 12.944 14.2181 13.032 14.4901 13.032C14.7567 13.032 14.9701 12.9493 15.1301 12.784C15.2954 12.6187 15.3781 12.4 15.3781 12.128Z" fill="#ADADAD"/>
<path d="M21.4219 12.128C21.4219 12.4747 21.3606 12.776 21.2379 13.032C21.1153 13.2827 20.9499 13.4907 20.7419 13.656C20.5393 13.8213 20.3073 13.944 20.0459 14.024C19.7846 14.1093 19.5153 14.152 19.2379 14.152C18.9819 14.152 18.7366 14.1173 18.5019 14.048C18.2726 13.984 18.0619 13.8907 17.8699 13.768C17.6833 13.6453 17.5206 13.496 17.3819 13.32C17.2486 13.1387 17.1499 12.936 17.0859 12.712L18.3099 12.336C18.3686 12.5333 18.4779 12.696 18.6379 12.824C18.8033 12.952 18.9979 13.016 19.2219 13.016C19.4513 13.016 19.6486 12.9467 19.8139 12.808C19.9846 12.6693 20.0699 12.464 20.0699 12.192C20.0699 12.0267 20.0353 11.888 19.9659 11.776C19.8966 11.664 19.8059 11.576 19.6939 11.512C19.5873 11.4427 19.4646 11.3947 19.3259 11.368C19.1873 11.3413 19.0486 11.328 18.9099 11.328C18.7073 11.328 18.4753 11.352 18.2139 11.4C17.9579 11.4427 17.7286 11.5013 17.5259 11.576L17.6619 8.33601H21.1339V9.48801H18.8539L18.8059 10.384C18.8913 10.3627 18.9846 10.3493 19.0859 10.344C19.1926 10.3333 19.2886 10.328 19.3739 10.328C19.6566 10.328 19.9233 10.3653 20.1739 10.44C20.4246 10.5147 20.6406 10.6293 20.8219 10.784C21.0086 10.9333 21.1553 11.12 21.2619 11.344C21.3686 11.568 21.4219 11.8293 21.4219 12.128Z" fill="#ADADAD"/>
</svg>