<svg width="51" height="50" viewBox="0 0 51 50" fill="none" xmlns="http://www.w3.org/2000/svg">
      <circle cx="14.4469" cy="40.7851" r="4.1719" stroke="#ADADAD" stroke-width="2.08595"></circle>
      <circle cx="37.4783" cy="40.7851" r="4.1719" stroke="#ADADAD" stroke-width="2.08595"></circle>
      <path fill-rule="evenodd" clip-rule="evenodd" d="M5.95703 25V20.9585C6.60686 21.4089 7.30533 21.794 8.04298 22.1044V25H5.95703ZM5.95703 36V40V41.043H7.00001H9.23826C9.23411 40.9575 9.232 40.8716 9.232 40.7851C9.232 40.1419 9.34845 39.5259 9.56142 38.957H8.04298V36H5.95703ZM36.957 20.043H20.1987C20.885 19.4241 21.4964 18.7237 22.0175 17.957H38H39.043V19V23.5969H45.5092H46.1711L46.4529 24.1957L50.0407 31.8199L50.14 32.0308V32.264V39.8881V40.9311H49.097H42.6912C42.6925 40.8826 42.6932 40.8339 42.6932 40.7851C42.6932 40.0995 42.5609 39.4448 42.3204 38.8452H48.0541V32.4971L44.8473 25.6828H39.3765V35.9265C38.7883 35.6965 38.148 35.5702 37.4783 35.5702C37.3024 35.5702 37.1285 35.5789 36.957 35.596V20.043ZM32.2697 41.043C32.2655 40.9575 32.2634 40.8716 32.2634 40.7851C32.2634 40.1419 32.3799 39.5259 32.5928 38.957H19.3323C19.5453 39.5259 19.6618 40.1419 19.6618 40.7851C19.6618 40.8716 19.6597 40.9575 19.6555 41.043H32.2697Z" fill="#ADADAD"></path>
      <path fill-rule="evenodd" clip-rule="evenodd" d="M22.6385 11.2741C22.6385 9.56709 22.1338 7.02303 20.5975 4.88403C19.0336 2.70665 16.4331 0.999985 12.3876 0.999985V2.50178C15.9421 2.50178 18.0916 3.96951 19.3777 5.76013C20.6914 7.58913 21.1367 9.80667 21.1367 11.2741C21.1367 16.0915 17.2213 20 12.3876 20C7.55389 20 3.63851 16.0915 3.63851 11.2741C3.63851 10.0453 3.98187 8.65067 4.56358 7.44814C5.01163 6.5219 5.56976 5.77259 6.15934 5.2928L6.11473 7.05357L7.49239 7.08847L7.57651 3.76834L7.59397 3.0795L6.90513 3.06205L3.74807 2.98206L3.71317 4.35973L4.91194 4.3901C4.22308 5.03761 3.64942 5.8892 3.21165 6.79417C2.54336 8.17569 2.13672 9.79266 2.13672 11.2741C2.13672 16.9244 6.72793 21.5018 12.3876 21.5018C18.0473 21.5018 22.6385 16.9244 22.6385 11.2741Z" fill="#ADADAD"></path>
      <line y1="49" x2="50" y2="49" stroke="#ADADAD" stroke-width="2"></line>
      <path d="M0 27H12V29H0V27Z" fill="#ADADAD"></path>
      <path d="M1 31H14V33H1V31Z" fill="#ADADAD"></path>
      <path d="M39 31H49V33H39V31Z" fill="#ADADAD"></path>
      <path d="M9.43709 15V13.32L12.7491 10.32C12.9571 10.12 13.1251 9.916 13.2531 9.708C13.3811 9.5 13.4451 9.268 13.4451 9.012C13.4451 8.708 13.3491 8.464 13.1571 8.28C12.9651 8.088 12.7091 7.992 12.3891 7.992C12.0531 7.992 11.7771 8.112 11.5611 8.352C11.3531 8.584 11.2291 8.892 11.1891 9.276L9.25709 9.012C9.30509 8.58 9.42109 8.196 9.60509 7.86C9.79709 7.524 10.0371 7.24 10.3251 7.008C10.6131 6.768 10.9411 6.588 11.3091 6.468C11.6851 6.34 12.0811 6.276 12.4971 6.276C12.8891 6.276 13.2691 6.328 13.6371 6.432C14.0051 6.536 14.3331 6.696 14.6211 6.912C14.9091 7.128 15.1371 7.4 15.3051 7.728C15.4811 8.056 15.5691 8.44 15.5691 8.88C15.5691 9.184 15.5291 9.46 15.4491 9.708C15.3691 9.948 15.2571 10.172 15.1131 10.38C14.9771 10.588 14.8171 10.784 14.6331 10.968C14.4571 11.144 14.2731 11.32 14.0811 11.496L12.1131 13.248H15.5811V15H9.43709Z" fill="#ADADAD"></path>
</svg>